<?xml version="1.0" encoding="UTF-8"?>
<svg width="512" height="512" viewBox="0 0 512 512" fill="none" xmlns="http://www.w3.org/2000/svg">
    <rect width="512" height="512" rx="256" fill="url(#paint0_linear)"/>
    <path d="M256 112C176.5 112 112 176.5 112 256C112 335.5 176.5 400 256 400C335.5 400 400 335.5 400 256C400 176.5 335.5 112 256 112ZM256 368C194.1 368 144 317.9 144 256C144 194.1 194.1 144 256 144C317.9 144 368 194.1 368 256C368 317.9 317.9 368 256 368Z" fill="white"/>
    <path d="M256 192C225.1 192 200 217.1 200 248C200 278.9 225.1 304 256 304C286.9 304 312 278.9 312 248C312 217.1 286.9 192 256 192Z" fill="white"/>
    <defs>
        <linearGradient id="paint0_linear" x1="0" y1="0" x2="512" y2="512" gradientUnits="userSpaceOnUse">
            <stop stop-color="#FF6B00"/>
            <stop offset="1" stop-color="#FF3300"/>
        </linearGradient>
    </defs>
</svg>
